<svg width="133" height="76" viewBox="0 0 133 76" fill="none" xmlns="http://www.w3.org/2000/svg">
<path d="M56.4053 36.52H53.6453V49H48.5153V36.52H46.6553V32.26H48.5153V31.78C48.5153 29.72 49.1053 28.16 50.2853 27.1C51.4653 26.02 53.1953 25.48 55.4753 25.48C55.8553 25.48 56.1353 25.49 56.3153 25.51V29.86C55.3353 29.8 54.6453 29.94 54.2453 30.28C53.8453 30.62 53.6453 31.23 53.6453 32.11V32.26H56.4053V36.52ZM66.3459 26.8V49H61.2159V26.8H66.3459ZM71.4435 40.6C71.4435 38.88 71.7635 37.37 72.4035 36.07C73.0635 34.77 73.9535 33.77 75.0735 33.07C76.1935 32.37 77.4435 32.02 78.8235 32.02C80.0035 32.02 81.0335 32.26 81.9135 32.74C82.8135 33.22 83.5035 33.85 83.9835 34.63V32.26H89.1135V49H83.9835V46.63C83.4835 47.41 82.7835 48.04 81.8835 48.52C81.0035 49 79.9735 49.24 78.7935 49.24C77.4335 49.24 76.1935 48.89 75.0735 48.19C73.9535 47.47 73.0635 46.46 72.4035 45.16C71.7635 43.84 71.4435 42.32 71.4435 40.6ZM83.9835 40.63C83.9835 39.35 83.6235 38.34 82.9035 37.6C82.2035 36.86 81.3435 36.49 80.3235 36.49C79.3035 36.49 78.4335 36.86 77.7135 37.6C77.0135 38.32 76.6635 39.32 76.6635 40.6C76.6635 41.88 77.0135 42.9 77.7135 43.66C78.4335 44.4 79.3035 44.77 80.3235 44.77C81.3435 44.77 82.2035 44.4 82.9035 43.66C83.6235 42.92 83.9835 41.91 83.9835 40.63ZM101.585 32.02C102.765 32.02 103.795 32.26 104.675 32.74C105.575 33.22 106.265 33.85 106.745 34.63V32.26H111.875V48.97C111.875 50.51 111.565 51.9 110.945 53.14C110.345 54.4 109.415 55.4 108.155 56.14C106.915 56.88 105.365 57.25 103.505 57.25C101.025 57.25 99.0148 56.66 97.4748 55.48C95.9348 54.32 95.0548 52.74 94.8348 50.74H99.9048C100.065 51.38 100.445 51.88 101.045 52.24C101.645 52.62 102.385 52.81 103.265 52.81C104.325 52.81 105.165 52.5 105.785 51.88C106.425 51.28 106.745 50.31 106.745 48.97V46.6C106.245 47.38 105.555 48.02 104.675 48.52C103.795 49 102.765 49.24 101.585 49.24C100.205 49.24 98.9548 48.89 97.8348 48.19C96.7148 47.47 95.8248 46.46 95.1648 45.16C94.5248 43.84 94.2048 42.32 94.2048 40.6C94.2048 38.88 94.5248 37.37 95.1648 36.07C95.8248 34.77 96.7148 33.77 97.8348 33.07C98.9548 32.37 100.205 32.02 101.585 32.02ZM106.745 40.63C106.745 39.35 106.385 38.34 105.665 37.6C104.965 36.86 104.105 36.49 103.085 36.49C102.065 36.49 101.195 36.86 100.475 37.6C99.7748 38.32 99.4248 39.32 99.4248 40.6C99.4248 41.88 99.7748 42.9 100.475 43.66C101.195 44.4 102.065 44.77 103.085 44.77C104.105 44.77 104.965 44.4 105.665 43.66C106.385 42.92 106.745 41.91 106.745 40.63ZM124.796 49.24C123.336 49.24 122.036 48.99 120.896 48.49C119.756 47.99 118.856 47.31 118.196 46.45C117.536 45.57 117.166 44.59 117.086 43.51H122.156C122.216 44.09 122.486 44.56 122.966 44.92C123.446 45.28 124.036 45.46 124.736 45.46C125.376 45.46 125.866 45.34 126.206 45.1C126.566 44.84 126.746 44.51 126.746 44.11C126.746 43.63 126.496 43.28 125.996 43.06C125.496 42.82 124.686 42.56 123.566 42.28C122.366 42 121.366 41.71 120.566 41.41C119.766 41.09 119.076 40.6 118.496 39.94C117.916 39.26 117.626 38.35 117.626 37.21C117.626 36.25 117.886 35.38 118.406 34.6C118.946 33.8 119.726 33.17 120.746 32.71C121.786 32.25 123.016 32.02 124.436 32.02C126.536 32.02 128.186 32.54 129.386 33.58C130.606 34.62 131.306 36 131.486 37.72H126.746C126.666 37.14 126.406 36.68 125.966 36.34C125.546 36 124.986 35.83 124.286 35.83C123.686 35.83 123.226 35.95 122.906 36.19C122.586 36.41 122.426 36.72 122.426 37.12C122.426 37.6 122.676 37.96 123.176 38.2C123.696 38.44 124.496 38.68 125.576 38.92C126.816 39.24 127.826 39.56 128.606 39.88C129.386 40.18 130.066 40.68 130.646 41.38C131.246 42.06 131.556 42.98 131.576 44.14C131.576 45.12 131.296 46 130.736 46.78C130.196 47.54 129.406 48.14 128.366 48.58C127.346 49.02 126.156 49.24 124.796 49.24Z" fill="black"/>
<g filter="url(#filter0_d_33_27)">
<rect width="4.42818" height="58.1342" transform="matrix(-1 0 0 1 30.5691 0)" fill="#603A83"/>
<rect width="4.42818" height="58.1342" transform="matrix(-1 0 0 1 26.1409 0)" fill="#088FC7"/>
<rect width="4.42819" height="58.1342" transform="matrix(-1 0 0 1 21.7128 0)" fill="#3CA960"/>
<rect width="4.42818" height="58.1342" transform="matrix(-1 0 0 1 17.2845 0)" fill="#FED63F"/>
<rect width="4.42818" height="58.1342" transform="matrix(-1 0 0 1 12.8564 0)" fill="#EE771F"/>
<rect width="4.42818" height="58.1342" transform="matrix(-1 0 0 1 8.42816 0)" fill="#E83623"/>
</g>
<g filter="url(#filter1_d_33_27)">
<path d="M6.10489 64.7101L17.2846 76L28.4642 64.7101C31.2707 61.8759 31.2707 57.2807 28.4642 54.4465C25.6577 51.6123 21.1074 51.6123 18.3009 54.4465L17.2846 55.4728L16.2682 54.4465C13.4617 51.6123 8.91142 51.6123 6.10489 54.4465C3.29837 57.2807 3.29837 61.8759 6.10489 64.7101Z" fill="white"/>
</g>
<defs>
<filter id="filter0_d_33_27" x="0" y="-2" width="34.5691" height="66.1342" filterUnits="userSpaceOnUse" color-interpolation-filters="sRGB">
<feFlood flood-opacity="0" result="BackgroundImageFix"/>
<feColorMatrix in="SourceAlpha" type="matrix" values="0 0 0 0 0 0 0 0 0 0 0 0 0 0 0 0 0 0 127 0" result="hardAlpha"/>
<feOffset dy="2"/>
<feGaussianBlur stdDeviation="2"/>
<feComposite in2="hardAlpha" operator="out"/>
<feColorMatrix type="matrix" values="0 0 0 0 0 0 0 0 0 0 0 0 0 0 0 0 0 0 0.5 0"/>
<feBlend mode="normal" in2="BackgroundImageFix" result="effect1_dropShadow_33_27"/>
<feBlend mode="normal" in="SourceGraphic" in2="effect1_dropShadow_33_27" result="shape"/>
</filter>
<filter id="filter1_d_33_27" x="0" y="50.3208" width="34.5691" height="31.6792" filterUnits="userSpaceOnUse" color-interpolation-filters="sRGB">
<feFlood flood-opacity="0" result="BackgroundImageFix"/>
<feColorMatrix in="SourceAlpha" type="matrix" values="0 0 0 0 0 0 0 0 0 0 0 0 0 0 0 0 0 0 127 0" result="hardAlpha"/>
<feOffset dy="2"/>
<feGaussianBlur stdDeviation="2"/>
<feComposite in2="hardAlpha" operator="out"/>
<feColorMatrix type="matrix" values="0 0 0 0 0 0 0 0 0 0 0 0 0 0 0 0 0 0 0.25 0"/>
<feBlend mode="normal" in2="BackgroundImageFix" result="effect1_dropShadow_33_27"/>
<feBlend mode="normal" in="SourceGraphic" in2="effect1_dropShadow_33_27" result="shape"/>
</filter>
</defs>
</svg>
