<svg width="174" height="82" viewBox="0 0 174 82" fill="none" xmlns="http://www.w3.org/2000/svg">
<path d="M57.5297 36.52H54.7697V49H49.6397V36.52H47.7797V32.26H49.6397V31.78C49.6397 29.72 50.2297 28.16 51.4097 27.1C52.5897 26.02 54.3197 25.48 56.5997 25.48C56.9797 25.48 57.2597 25.49 57.4397 25.51V29.86C56.4597 29.8 55.7697 29.94 55.3697 30.28C54.9697 30.62 54.7697 31.23 54.7697 32.11V32.26H57.5297V36.52ZM67.4703 26.8V49H62.3403V26.8H67.4703ZM72.5679 40.6C72.5679 38.88 72.8879 37.37 73.5279 36.07C74.1879 34.77 75.0779 33.77 76.1979 33.07C77.3179 32.37 78.5679 32.02 79.9479 32.02C81.1279 32.02 82.1579 32.26 83.0379 32.74C83.9379 33.22 84.6279 33.85 85.1079 34.63V32.26H90.2379V49H85.1079V46.63C84.6079 47.41 83.9079 48.04 83.0079 48.52C82.1279 49 81.0979 49.24 79.9179 49.24C78.5579 49.24 77.3179 48.89 76.1979 48.19C75.0779 47.47 74.1879 46.46 73.5279 45.16C72.8879 43.84 72.5679 42.32 72.5679 40.6ZM85.1079 40.63C85.1079 39.35 84.7479 38.34 84.0279 37.6C83.3279 36.86 82.4679 36.49 81.4479 36.49C80.4279 36.49 79.5579 36.86 78.8379 37.6C78.1379 38.32 77.7879 39.32 77.7879 40.6C77.7879 41.88 78.1379 42.9 78.8379 43.66C79.5579 44.4 80.4279 44.77 81.4479 44.77C82.4679 44.77 83.3279 44.4 84.0279 43.66C84.7479 42.92 85.1079 41.91 85.1079 40.63ZM102.709 32.02C103.889 32.02 104.919 32.26 105.799 32.74C106.699 33.22 107.389 33.85 107.869 34.63V32.26H112.999V48.97C112.999 50.51 112.689 51.9 112.069 53.14C111.469 54.4 110.539 55.4 109.279 56.14C108.039 56.88 106.489 57.25 104.629 57.25C102.149 57.25 100.139 56.66 98.5993 55.48C97.0593 54.32 96.1793 52.74 95.9593 50.74H101.029C101.189 51.38 101.569 51.88 102.169 52.24C102.769 52.62 103.509 52.81 104.389 52.81C105.449 52.81 106.289 52.5 106.909 51.88C107.549 51.28 107.869 50.31 107.869 48.97V46.6C107.369 47.38 106.679 48.02 105.799 48.52C104.919 49 103.889 49.24 102.709 49.24C101.329 49.24 100.079 48.89 98.9593 48.19C97.8393 47.47 96.9493 46.46 96.2893 45.16C95.6493 43.84 95.3293 42.32 95.3293 40.6C95.3293 38.88 95.6493 37.37 96.2893 36.07C96.9493 34.77 97.8393 33.77 98.9593 33.07C100.079 32.37 101.329 32.02 102.709 32.02ZM107.869 40.63C107.869 39.35 107.509 38.34 106.789 37.6C106.089 36.86 105.229 36.49 104.209 36.49C103.189 36.49 102.319 36.86 101.599 37.6C100.899 38.32 100.549 39.32 100.549 40.6C100.549 41.88 100.899 42.9 101.599 43.66C102.319 44.4 103.189 44.77 104.209 44.77C105.229 44.77 106.089 44.4 106.789 43.66C107.509 42.92 107.869 41.91 107.869 40.63ZM125.471 32.02C126.651 32.02 127.681 32.26 128.561 32.74C129.461 33.22 130.151 33.85 130.631 34.63V32.26H135.761V48.97C135.761 50.51 135.451 51.9 134.831 53.14C134.231 54.4 133.301 55.4 132.041 56.14C130.801 56.88 129.251 57.25 127.391 57.25C124.911 57.25 122.901 56.66 121.361 55.48C119.821 54.32 118.941 52.74 118.721 50.74H123.791C123.951 51.38 124.331 51.88 124.931 52.24C125.531 52.62 126.271 52.81 127.151 52.81C128.211 52.81 129.051 52.5 129.671 51.88C130.311 51.28 130.631 50.31 130.631 48.97V46.6C130.131 47.38 129.441 48.02 128.561 48.52C127.681 49 126.651 49.24 125.471 49.24C124.091 49.24 122.841 48.89 121.721 48.19C120.601 47.47 119.711 46.46 119.051 45.16C118.411 43.84 118.091 42.32 118.091 40.6C118.091 38.88 118.411 37.37 119.051 36.07C119.711 34.77 120.601 33.77 121.721 33.07C122.841 32.37 124.091 32.02 125.471 32.02ZM130.631 40.63C130.631 39.35 130.271 38.34 129.551 37.6C128.851 36.86 127.991 36.49 126.971 36.49C125.951 36.49 125.081 36.86 124.361 37.6C123.661 38.32 123.311 39.32 123.311 40.6C123.311 41.88 123.661 42.9 124.361 43.66C125.081 44.4 125.951 44.77 126.971 44.77C127.991 44.77 128.851 44.4 129.551 43.66C130.271 42.92 130.631 41.91 130.631 40.63ZM157.652 40.36C157.652 40.84 157.622 41.34 157.562 41.86H145.952C146.032 42.9 146.362 43.7 146.942 44.26C147.542 44.8 148.272 45.07 149.132 45.07C150.412 45.07 151.302 44.53 151.802 43.45H157.262C156.982 44.55 156.472 45.54 155.732 46.42C155.012 47.3 154.102 47.99 153.002 48.49C151.902 48.99 150.672 49.24 149.312 49.24C147.672 49.24 146.212 48.89 144.932 48.19C143.652 47.49 142.652 46.49 141.932 45.19C141.212 43.89 140.852 42.37 140.852 40.63C140.852 38.89 141.202 37.37 141.902 36.07C142.622 34.77 143.622 33.77 144.902 33.07C146.182 32.37 147.652 32.02 149.312 32.02C150.932 32.02 152.372 32.36 153.632 33.04C154.892 33.72 155.872 34.69 156.572 35.95C157.292 37.21 157.652 38.68 157.652 40.36ZM152.402 39.01C152.402 38.13 152.102 37.43 151.502 36.91C150.902 36.39 150.152 36.13 149.252 36.13C148.392 36.13 147.662 36.38 147.062 36.88C146.482 37.38 146.122 38.09 145.982 39.01H152.402ZM167.888 35.05C168.488 34.13 169.238 33.41 170.138 32.89C171.038 32.35 172.038 32.08 173.138 32.08V37.51H171.728C170.448 37.51 169.488 37.79 168.848 38.35C168.208 38.89 167.888 39.85 167.888 41.23V49H162.758V32.26H167.888V35.05Z" fill="black"/>
<g filter="url(#filter0_d_33_27)">
<rect width="4.42818" height="58.1342" transform="matrix(-1 0 0 1 30.5691 0)" fill="#603A83"/>
<rect width="4.42818" height="58.1342" transform="matrix(-1 0 0 1 26.1409 0)" fill="#088FC7"/>
<rect width="4.42819" height="58.1342" transform="matrix(-1 0 0 1 21.7128 0)" fill="#3CA960"/>
<rect width="4.42818" height="58.1342" transform="matrix(-1 0 0 1 17.2845 0)" fill="#FED63F"/>
<rect width="4.42818" height="58.1342" transform="matrix(-1 0 0 1 12.8564 0)" fill="#EE771F"/>
<rect width="4.42818" height="58.1342" transform="matrix(-1 0 0 1 8.42816 0)" fill="#E83623"/>
</g>
<g filter="url(#filter1_d_33_27)">
<path d="M6.10489 64.7101L17.2846 76L28.4642 64.7101C31.2707 61.8759 31.2707 57.2807 28.4642 54.4465C25.6577 51.6123 21.1074 51.6123 18.3009 54.4465L17.2846 55.4728L16.2682 54.4465C13.4617 51.6123 8.91142 51.6123 6.10489 54.4465C3.29837 57.2807 3.29837 61.8759 6.10489 64.7101Z" fill="white"/>
</g>
<defs>
<filter id="filter0_d_33_27" x="0" y="-2" width="34.5691" height="66.1342" filterUnits="userSpaceOnUse" color-interpolation-filters="sRGB">
<feFlood flood-opacity="0" result="BackgroundImageFix"/>
<feColorMatrix in="SourceAlpha" type="matrix" values="0 0 0 0 0 0 0 0 0 0 0 0 0 0 0 0 0 0 127 0" result="hardAlpha"/>
<feOffset dy="2"/>
<feGaussianBlur stdDeviation="2"/>
<feComposite in2="hardAlpha" operator="out"/>
<feColorMatrix type="matrix" values="0 0 0 0 0 0 0 0 0 0 0 0 0 0 0 0 0 0 0.5 0"/>
<feBlend mode="normal" in2="BackgroundImageFix" result="effect1_dropShadow_33_27"/>
<feBlend mode="normal" in="SourceGraphic" in2="effect1_dropShadow_33_27" result="shape"/>
</filter>
<filter id="filter1_d_33_27" x="0" y="50.3208" width="34.5691" height="31.6792" filterUnits="userSpaceOnUse" color-interpolation-filters="sRGB">
<feFlood flood-opacity="0" result="BackgroundImageFix"/>
<feColorMatrix in="SourceAlpha" type="matrix" values="0 0 0 0 0 0 0 0 0 0 0 0 0 0 0 0 0 0 127 0" result="hardAlpha"/>
<feOffset dy="2"/>
<feGaussianBlur stdDeviation="2"/>
<feComposite in2="hardAlpha" operator="out"/>
<feColorMatrix type="matrix" values="0 0 0 0 0 0 0 0 0 0 0 0 0 0 0 0 0 0 0.25 0"/>
<feBlend mode="normal" in2="BackgroundImageFix" result="effect1_dropShadow_33_27"/>
<feBlend mode="normal" in="SourceGraphic" in2="effect1_dropShadow_33_27" result="shape"/>
</filter>
</defs>
</svg>
